<svg xmlns="http://www.w3.org/2000/svg" viewBox="0 0 35.966 51.453"><defs><style>.a{fill:#4daa57;}.b{fill:#fff;}</style></defs><g transform="translate(-170 -402)"><circle class="a" cx="17.957" cy="17.957" r="17.957" transform="translate(170 402)"/><path class="a" d="M.036.273V1.337L.3,3.877.991,6.891,2.25,10.422l1.389,3.315L5.028,16.45,6.72,19.378l1.78,2.8,1.432,2.2,1.736,2.411L13.882,29.5l1.823,2.153,1.649,2.024.825.947L19.395,33.2,21.131,31.3l1.953-2.368,1.953-2.626,1.693-2.583,1.91-2.756,1.866-3.014,1.476-2.669,1.346-3.014L34.457,9.3l.825-2.411.467-3.014L36,1.645V.273H.036" transform="translate(169.964 418.833)"/><circle class="b" cx="10.261" cy="10.261" r="10.261" transform="translate(177.696 409.696)"/></g></svg>