<svg xmlns="http://www.w3.org/2000/svg" viewBox="0 0 25.564 25.564"><defs><style>.a{fill:none;}.b{fill:#4ee1ec;}</style></defs><g transform="translate(-294.488 -21.94)"><path class="a" d="M0,0H25.564V25.564H0Z" transform="translate(294.488 21.94)"/><path class="b" d="M20.706,9.4,15.551,8.95,13.538,4.21a1.066,1.066,0,0,0-1.96,0L9.565,8.96,4.42,9.4a1.063,1.063,0,0,0-.607,1.864l3.909,3.387L6.55,19.676a1.063,1.063,0,0,0,1.587,1.15l4.421-2.663,4.421,2.674a1.063,1.063,0,0,0,1.587-1.15l-1.172-5.038L21.3,11.261a1.061,1.061,0,0,0-.6-1.864Zm-8.149,6.775L8.553,18.59l1.065-4.559L6.081,10.963l4.666-.4,1.811-4.293,1.821,4.3,4.666.4-3.536,3.068L16.574,18.6Z" transform="translate(294.712 22.172)"/></g></svg>